<svg xmlns="http://www.w3.org/2000/svg" xmlns:xlink="http://www.w3.org/1999/xlink" viewBox="0 0 512 512"><defs><clipPath id="c"><path d="M0 0h600v300H0z"/></clipPath><clipPath id="d"><path d="m0 0 300 150H0zm300 0h300L300 150zm0 150h300v150zm0 0v150H0z"/></clipPath><g id="b"><g id="a"><path d="M0-.3v.5l1-.5z"/><path d="M.213.256-.081-.15l1.103-.183z"/></g><use xlink:href="#a" transform="scale(-1 1)"/><use xlink:href="#a" transform="rotate(72 0 0)"/><use xlink:href="#a" transform="rotate(-72 0 0)"/><use xlink:href="#a" transform="scale(-1 1)rotate(72)"/></g></defs><path fill="#00247d" fill-rule="evenodd" d="M0 0h512v512H0z"/><g transform="translate(-148.7 134.5)scale(.60566)"><use xlink:href="#b" width="100%" height="100%" fill="#fff" transform="translate(900 120)scale(45.4)"/><use xlink:href="#b" width="100%" height="100%" fill="#cc142b" transform="matrix(30 0 0 30 900 120)"/></g><g transform="rotate(82 393.4 127.1)scale(.60566)"><use xlink:href="#b" width="100%" height="100%" fill="#fff" transform="rotate(-82 519 -457.7)scale(40.4)"/><use xlink:href="#b" width="100%" height="100%" fill="#cc142b" transform="rotate(-82 519 -457.7)scale(25)"/></g><g transform="rotate(82 393.4 127.1)scale(.60566)"><use xlink:href="#b" width="100%" height="100%" fill="#fff" transform="rotate(-82 668.6 -327.7)scale(45.4)"/><use xlink:href="#b" width="100%" height="100%" fill="#cc142b" transform="rotate(-82 668.6 -327.7)scale(30)"/></g><g transform="translate(-148.7 134.5)scale(.60566)"><use xlink:href="#b" width="100%" height="100%" fill="#fff" transform="translate(900 480)scale(50.4)"/><use xlink:href="#b" width="100%" height="100%" fill="#cc142b" transform="matrix(35 0 0 35 900 480)"/></g><path stroke="#fff" stroke-width="60" d="m0 0 600 300M0 300 600 0" clip-path="url(#c)" transform="scale(.52004 .78924)"/><path stroke="#cc142b" stroke-width="40" d="m0 0 600 300M0 300 600 0" clip-path="url(#d)" transform="scale(.52004 .78924)"/><path fill="#fff" d="M125.7 0v88H-.1v60.7h125.8v88h60.6v-88h125.8V88.1H186.4V0z" clip-path="url(#c)" color="#000" font-family="sans-serif" font-weight="400" overflow="visible" style="line-height:normal;text-indent:0;text-align:start;text-decoration-line:none;text-decoration-style:solid;text-decoration-color:#000;text-transform:none;block-progression:tb;isolation:auto;mix-blend-mode:normal"/><path fill="#cc142b" d="M137.8 0v100.2H0v36.4h138v100.2h36.3V136.6h137.9v-36.4h-138V0z" color="#000" font-family="sans-serif" font-weight="400" overflow="visible" style="line-height:normal;text-indent:0;text-align:start;text-decoration-line:none;text-decoration-style:solid;text-decoration-color:#000;text-transform:none;block-progression:tb;isolation:auto;mix-blend-mode:normal"/></svg>