<svg xmlns="http://www.w3.org/2000/svg" viewBox="0 0 605.1 106.1" fill="#4a5960" xmlns:v="https://vecta.io/nano"><path d="M207.6 24.9c0-4-3.1-7.1-7.1-7.1h-11c-4 0-7.1 3.1-7.1 7.1v56.3c0 4 3.1 7.1 7.1 7.1h11c4 0 7.1-3.1 7.1-7.1v-7.6h20.6V84c0 11.2-10.2 22.1-20.6 22.1h-25.2c-10.5 0-20.6-10.9-20.6-22.1V22.1C161.8 10.9 172 0 182.4 0h25.2c10.5 0 20.6 10.9 20.6 22.1v10.5h-20.6v-7.7zm89.7 63.3V106h-38.6c-9.8 0-16.3-8.6-16.3-16.7V.3H263v84.3c0 2.1 1.6 3.7 3.7 3.7h30.6zm11.3-65.9c0-11.2 10.2-22.1 20.6-22.1h25.2C364.9.2 375 11.1 375 22.3V84c0 11.2-10.2 22.1-20.6 22.1h-25.2c-10.5 0-20.6-10.9-20.6-22.1V22.3zm45.8 2.9c0-4-3.1-7.1-7.1-7.1h-11c-4 0-7.1 3.1-7.1 7.1v56c0 4 3.1 7.1 7.1 7.1h11c4 0 7.1-3.1 7.1-7.1v-56zm34.8 48.5h20.6V81c0 4.1 2.8 7.2 6.9 7.2h11.2c4 0 7.1-3.1 7.1-7.4v-2.3c0-20.5-45.8-15.8-45.8-47v-9.6c0-11.2 10.2-21.8 20.6-21.8H435c10.5 0 20.6 10.9 20.6 22.1v9.5H435v-6.6c0-4-3.1-7.1-7.1-7.1h-11.2c-4 0-7.1 3.1-7.1 7.1V27c0 19 46 13.3 46 46.5V84c0 11.2-10.2 22.1-20.6 22.1h-25.2c-10.5 0-20.6-10.9-20.6-22.1V73.7zm144.1-55.6h-22.9v88h-20.6v-88h-22.9V.3h66.5v17.8zm31.9 26.2h33.9v17.5h-33.9v26.9h39.9v17.4h-60.4V17.8c0-9.9 7.8-17.8 17.7-17.8h42.7v17.5H569c-2 0-3.5 1.6-3.5 3.5l-.3 23.3zM113.7 21.2H6.4c-3.5 0-6.4-2.9-6.4-6.4V6.4C0 2.9 2.9 0 6.4 0h107.4c3.5 0 6.4 2.9 6.4 6.4v8.5c-.1 3.5-3 6.3-6.5 6.3zm0 84.9H6.4c-3.5 0-6.4-2.9-6.4-6.4v-8.5c0-3.5 2.9-6.4 6.4-6.4h107.4c3.5 0 6.4 2.9 6.4 6.4v8.5c-.1 3.5-3 6.4-6.5 6.4zM48 43h24v21.2H48zm65.7 0H84.9v21.2h28.7a6.49 6.49 0 0 0 6.5-6.5v-8.3c0-3.5-2.9-6.4-6.4-6.4zM6.5 64.2h28.7V43H6.4C2.9 43 0 45.9 0 49.4v8.3a6.49 6.49 0 0 0 6.5 6.5z"/></svg>