<svg xmlns="http://www.w3.org/2000/svg" height="98" width="773" fill="#22313f" xmlns:v="https://vecta.io/nano"><path d="M316.829 14.193a27.56 27.56 0 0 0-11.84-3.004h-15.975c-4.14.118-7.614 3.155-8.283 7.241l-8.347 58.747c-.312 1.953.252 3.943 1.541 5.443 1.295 1.472 3.176 2.295 5.137 2.247 4.169-.095 7.686-3.131 8.386-7.241l2.286-16.202h7.448l9.631 19.848a6.74 6.74 0 0 0 6.087 3.595 7.7 7.7 0 0 0 3.942-1.104c2.298-1.281 3.876-3.55 4.276-6.149a7.02 7.02 0 0 0-.604-4.018L312.81 57.65a28.03 28.03 0 0 0 9.4-9.076 32.86 32.86 0 0 0 4.687-12.132c1.477-10.091-2.106-18.012-10.068-22.248zm-4.88 21.825c-.42 2.049-1.231 3.997-2.389 5.739-2.132 3.209-5.137 4.622-9.567 4.622h-8.18l2.851-20.207h8.655c1.826.049 3.621.486 5.265 1.284 2.928 1.618 3.981 4.237 3.339 8.563zm72.928-24.88c-4.14.118-7.614 3.155-8.283 7.241l-5.393 38.18c0 .128-2.568 13.3-13.651 13.3a8.8 8.8 0 0 1-6.986-2.786c-2.889-3.338-2.799-8.794-2.568-10.065l5.393-38.155c.312-1.953-.252-3.943-1.541-5.443-1.295-1.472-3.176-2.295-5.137-2.247-4.14.118-7.614 3.155-8.283 7.241l-5.393 38.129a33.24 33.24 0 0 0 1.194 13.506c3.121 9.551 10.813 14.815 21.702 14.815a28.83 28.83 0 0 0 25.375-14.481 37.61 37.61 0 0 0 4.841-13.403l5.393-38.155c.312-1.953-.252-3.943-1.541-5.443-1.287-1.47-3.157-2.296-5.111-2.259zm67.226 0c-4.18.06-7.712 3.114-8.373 7.241l-5.008 35.369-21.895-39.233c-1.174-2.098-3.4-3.388-5.804-3.364-4.18.06-7.712 3.114-8.373 7.241l-8.296 58.798c-.312 1.953.252 3.943 1.541 5.443 1.295 1.472 3.176 2.295 5.137 2.247a8.71 8.71 0 0 0 8.373-7.241l5.008-35.356 21.895 39.259c1.192 2.131 3.466 3.426 5.907 3.364a8.64 8.64 0 0 0 8.27-7.241l8.296-58.798c.312-1.953-.252-3.943-1.541-5.443-1.293-1.477-3.174-2.304-5.137-2.259zm70.218 4.442c-5.193-2.936-11.062-4.468-17.028-4.442-20.213 0-38.987 16.433-41.838 36.64a32.51 32.51 0 0 0 7.32 26.318 31.94 31.94 0 0 0 24.566 10.784 41.43 41.43 0 0 0 18.171-4.429c3.852-2.003 5.702-6.419 4.289-9.975a6.52 6.52 0 0 0-3.724-3.659c-2.054-.724-4.316-.571-6.254.424a23.12 23.12 0 0 1-10.826 2.568 18.6 18.6 0 0 1-14.318-6.226 18.96 18.96 0 0 1-4.238-15.406c1.734-12.158 13.021-22.056 25.17-22.056a18.65 18.65 0 0 1 9.914 2.568h.077a8.22 8.22 0 0 0 10.53-2.927 7.7 7.7 0 0 0 1.284-5.944 6.7 6.7 0 0 0-3.108-4.237zm38.384 54.253h-18.71l7.191-50.993c.312-1.953-.252-3.943-1.541-5.443-1.295-1.472-3.176-2.295-5.137-2.247-4.17.072-7.688 3.124-8.347 7.241l-8.309 58.798c-.333 1.955.231 3.955 1.535 5.448a6.6 6.6 0 0 0 5.194 2.254h26.39a8.71 8.71 0 0 0 8.373-7.241 6.68 6.68 0 0 0-6.716-7.793zm52.009-58.695c-19.391 0-37.472 16.433-40.323 36.64-1.438 10.27 1.156 19.771 7.32 26.87 5.815 6.661 14.273 10.419 23.115 10.27 19.442 0 37.575-16.433 40.426-36.652 1.438-10.206-1.156-19.732-7.32-26.831a30.13 30.13 0 0 0-23.218-10.309zm-8.283 58.695a16.7 16.7 0 0 1-12.842-5.687c-3.639-4.439-5.184-10.233-4.238-15.893 1.734-12.158 12.328-22.056 23.667-22.056a16.8 16.8 0 0 1 12.919 5.713 19.59 19.59 0 0 1 4.238 15.868c-1.695 12.158-12.328 22.056-23.731 22.056zm97.725-58.695c-4.14.118-7.614 3.155-8.283 7.241l-5.394 38.18c0 .128-2.568 13.3-13.638 13.3a8.8 8.8 0 0 1-6.986-2.786c-2.877-3.338-2.787-8.794-2.568-10.065l5.393-38.155c.312-1.953-.252-3.943-1.541-5.443-1.295-1.472-3.176-2.295-5.137-2.247a8.64 8.64 0 0 0-8.27 7.241l-5.393 38.129a33.24 33.24 0 0 0 1.181 13.506c3.108 9.551 10.787 14.815 21.677 14.815a28.83 28.83 0 0 0 25.388-14.481 37.61 37.61 0 0 0 4.841-13.403l5.394-38.155c.312-1.953-.252-3.943-1.541-5.443-1.287-1.47-3.157-2.296-5.111-2.259zm43.212 0h-17.169c-4.14.118-7.614 3.155-8.283 7.241l-8.296 58.798c-.319 1.949.236 3.939 1.515 5.443 1.295 1.472 3.176 2.295 5.137 2.247h17.131c1.284 0 31.385-.424 36.47-36.64 1.708-12.029-.295-21.439-5.971-27.987-7.679-8.833-19.224-9.089-20.547-9.089zm.681 55.897c-2.726 1.646-5.81 2.607-8.989 2.799h-9.297l6.164-43.649h9.76a15.96 15.96 0 0 1 7.705 2.568c4.983 3.312 6.845 9.718 5.522 19.052s-4.983 15.791-10.877 19.231zM189.562 33.54h-.07a5.16 5.16 0 0 0-5.157 5.156 5.16 5.16 0 0 0 5.157 5.156h.07a5.16 5.16 0 0 0 4.912-5.15 5.16 5.16 0 0 0-4.912-5.15zm9.918-15.479c.003 1.369-.539 2.684-1.506 3.653a5.16 5.16 0 0 1-3.651 1.514h-17.969a5.16 5.16 0 0 1-5.157-5.156 5.16 5.16 0 0 1 5.157-5.156h17.969a5.16 5.16 0 0 1 5.157 5.133zm17.619 15.491h-6.371a5.16 5.16 0 0 0-4.466 2.578c-.921 1.595-.921 3.561 0 5.156a5.16 5.16 0 0 0 4.466 2.578h6.394c2.852 0 5.163-2.311 5.163-5.162s-2.312-5.162-5.163-5.162zm.513 25.78c0 1.367-.543 2.679-1.511 3.646a5.16 5.16 0 0 1-3.647 1.51h-54.526c-2.852 0-5.163 2.311-5.163 5.162s2.312 5.162 5.163 5.162h37.502a5.16 5.16 0 0 1 4.466 2.578c.921 1.595.921 3.561 0 5.156a5.16 5.16 0 0 1-4.466 2.578h-22.87a27.88 27.88 0 0 1-1.844 2.403 29.64 29.64 0 0 1-19.216 10.31H25.482C11.677 97.926.345 86.941.008 73.143S10.452 47.82 24.246 47.235c0-11.48 5.949-22.141 15.721-28.171a33.12 33.12 0 0 1 32.236-1.423C80.107 7.382 92.028 1 104.95.108a45.28 45.28 0 0 1 34.847 12.867h16.254a5.16 5.16 0 0 1 4.466 2.578c.921 1.595.921 3.561 0 5.156a5.16 5.16 0 0 1-4.466 2.578h-16.616a5.16 5.16 0 0 0-4.67 2.502c-.977 1.631-.977 3.666 0 5.297a5.16 5.16 0 0 0 4.67 2.502h29.777a5.16 5.16 0 0 1 5.157 5.156 5.16 5.16 0 0 1-5.157 5.156h-24.503c-2.852 0-5.163 2.311-5.163 5.162s2.312 5.162 5.163 5.162h67.676a5.16 5.16 0 0 1 5.204 5.086z"/></svg>